<?xml version="1.0" encoding="UTF-8"?>
<!DOCTYPE svg PUBLIC "-//W3C//DTD SVG 1.1//EN" "http://www.w3.org/Graphics/SVG/1.1/DTD/svg11.dtd">
<!-- Creator: CorelDRAW -->
<svg xmlns="http://www.w3.org/2000/svg" xml:space="preserve" width="160mm" height="160mm" style="shape-rendering:geometricPrecision; text-rendering:geometricPrecision; image-rendering:optimizeQuality; fill-rule:evenodd; clip-rule:evenodd"
viewBox="0 0 160 160"
 xmlns:xlink="http://www.w3.org/1999/xlink"
 xmlns:svg="http://www.w3.org/2000/svg"
 version="1.0">
 <defs>
  <style type="text/css">
   <![CDATA[
    .str0 {stroke:#1F1A17;stroke-width:0.0762}
    .fil0 {fill:#605D5C}
   ]]>
  </style>
 </defs>
 <g id="Layer_x0020_1">
  <metadata id="CorelCorpID_0Corel-Layer"/>
  <path class="fil0 str0" d="M115.419 84.283c0,3.6139 -4.337,11.3848 -13.047,23.4202l-1.699 -0.8675c8.5657,-11.421 12.8306,-19.0109 12.8306,-22.7695 0,-1.4096 -0.289,-2.6386 -0.8311,-3.6865 1.807,0.8311 2.7465,2.1322 2.7465,3.9033zm8.4573 -35.1665c0,1.988 -0.7227,2.9638 -2.2044,2.9638 -0.3615,0 -0.759,-0.0726 -1.1927,-0.181l-12.2522 25.6971c2.7465,1.518 4.1202,3.5422 4.1202,6.1445 0,3.7586 -4.1927,11.2763 -12.6137,22.5527l-12.0717 -5.7107 6.6866 -11.4207c-4.1928,-1.8432 -8.3488,-3.1085 -12.5053,-3.8312 -9.939,-1.7348 -14.9266,-5.8913 -14.9266,-12.3606 0,-5.6019 2.1685,-13.3728 6.5777,-23.3118 -1.0842,-0.5784 -2.9275,-1.4458 -5.6381,-2.6385 -1.8796,-0.9395 -3.1444,-2.1322 -3.6865,-3.6139l-54.647 14.4207c0.2889,0.9759 0.4337,1.7348 0.4337,2.2044 0,1.3374 -0.5422,2.0243 -1.5902,2.0243 -1.1205,0 -2.1326,-1.0484 -2.9638,-3.1807l-2.3491 0.6506 -0.5062 -1.6986 2.5301 -0.759c-0.2169,-0.6868 -0.3253,-1.4821 -0.3253,-2.3132 0,-1.3374 0.5058,-2.0238 1.4817,-2.0238 1.1205,0 2.1326,1.0842 2.9638,3.2886l54.647 -14.4207c0,-0.6864 0.2168,-1.807 0.6505,-3.3612 0.9759,-1.9876 2.7828,-2.9634 5.3851,-2.9634 0.5062,0 1.229,0.0359 2.2048,0.1443 1.0121,0.1084 1.7348,0.1447 2.2407,0.1447 2.2048,0 3.7228,-0.1084 4.5539,-0.289l4.7708 -1.3737c1.7711,0 4.4096,0.181 7.9514,0.6147l1.5542 -3.5781c-0.47,-0.1447 -1.1927,-0.2168 -2.0964,-0.2168 -0.7952,0 -2.8553,0.289 -6.2524,0.9395 0.9758,-1.6985 2.2407,-3.0359 3.7223,-4.0118 -3.6139,0 -7.2283,0.9037 -10.8063,2.747 1.1927,-2.6748 3.3975,-4.5539 6.6503,-5.6023 -1.2653,-0.8674 -2.9638,-1.3011 -5.0602,-1.3011 -1.4096,0 -2.6744,0.1447 -3.7224,0.4337 1.9154,-2.7466 3.4697,-4.1202 4.6624,-4.1202 3.3249,0 5.7824,0.5784 7.4088,1.6989 -0.4337,-0.94 -1.5179,-1.9158 -3.3249,-3.0359 -1.807,-1.0843 -3.2528,-1.6264 -4.3008,-1.6264 -1.1927,0 -2.5301,0.4695 -4.0118,1.3732 1.4096,-3.867 2.9634,-5.8187 4.6624,-5.8187 1.5538,0 3.7223,0.759 6.5414,2.3128 -2.4575,-2.7465 -3.9392,-5.855 -4.4455,-9.3247 2.6386,2.1327 5.0239,3.7591 7.2288,4.8792 -1.3737,-2.8191 -2.2049,-6.0719 -2.5664,-9.7221 2.5664,5.7829 6.5056,10.7705 11.8548,14.9266l7.5177 3.4696c3.1802,1.4822 4.7708,3.3975 4.7708,5.7466 0,0.47 -0.1448,1.1927 -0.47,2.0964 -0.3253,0.9396 -0.47,1.5902 -0.47,2.0239 0,0.2894 0.1084,0.6505 0.3252,1.1205 0.2169,0.4337 0.2895,0.7953 0.2895,1.0121 0,0.1806 -0.2895,0.4696 -0.94,0.759 -0.6143,0.3253 -0.9033,0.8674 -0.8311,1.6623l-0.759 0.6147 -0.1085 0.8674c-0.6142,1.1201 -1.2289,1.6985 -1.8069,1.6985 -0.8316,0 -2.2048,-0.3974 -4.1202,-1.1564l-0.94 2.096c1.7711,1.699 3.0359,2.7469 3.8675,3.1444 0.7948,0.3615 1.6622,0.5784 2.6022,0.5784 3.795,0.0721 7.1562,1.6627 10.0474,4.7707 0.47,-0.0721 1.1564,-0.1084 1.988,-0.1084 2.4212,0 3.6139,1.0843 3.6139,3.2528zm-22.5527 59.9599l-2.9634 4.6624 -1.5905 -1.1927 2.9638 -4.4455 1.5901 0.9758zm56.1291 48.6835c-1.4821,1.1565 -3.0001,1.6986 -4.5539,1.6986 -0.7232,0 -1.3011,-0.1443 -1.8074,-0.4337l-35.8892 -21.3601c-3.6139,-2.3491 -9.6137,-5.8908 -17.9988,-10.6979 -0.5059,-0.289 -6.8668,-3.1807 -19.0831,-8.7104l-38.0936 -17.2398 1.3733 -2.7466 32.0942 14.6013 -29.9978 -18.1072 1.0842 -1.4817 35.8892 21.2875 7.0836 -12.2881 10.8068 5.0961c-2.2048,2.9633 -3.2891,4.8792 -3.2891,5.7103 5.4576,4.9513 8.1683,8.1683 8.1683,9.65 0,0.6142 -0.2894,1.4095 -0.8674,2.3132 0,0.3611 3.6865,2.2407 11.0232,5.6019 11.9269,5.5298 23.6007,10.7342 35.0581,15.6856 1.8432,0.759 3.6139,1.1568 5.385,1.1568 1.2649,0 2.3854,-0.181 3.2891,-0.5421 -0.759,2.6381 -2.6385,3.9392 -5.6023,3.9392 -1.6264,0 -5.4572,-1.3733 -11.4569,-4.1202l-26.7814 -12.2881 39.1783 22.9502c0.7227,0.4337 1.5901,0.6505 2.6381,0.6505 0.7952,0 1.5542,-0.1084 2.3495,-0.3253zm-38.6724 -106.62c-0.759,-0.578 -6.6141,-1.1564 -17.5651,-1.8069 -0.5422,2.8912 -1.9876,5.7103 -4.2287,8.4935 -3.1081,3.7224 -4.9513,6.1078 -5.4935,7.1199 -0.5784,1.048 -1.3374,2.6022 -2.3491,4.7345 2.0602,0.759 5.0961,1.9158 9.1079,3.4696 1.1927,0.5063 3.8671,1.7349 7.951,3.7228l12.5775 -25.7334zm-110.414 5.0961c-0.6505,-1.5538 -1.2652,-2.3491 -1.9158,-2.3491 -0.3611,0 -0.5058,0.5784 -0.4337,1.6985 0,0.3616 0.0726,0.7953 0.2169,1.2653l2.1326 -0.6147zm0.7227 3.7949c0,-0.3611 -0.1447,-1.0117 -0.3974,-1.9875l-2.1326 0.5058c0.5784,1.6264 1.1926,2.4576 1.9158,2.4576 0.3974,0 0.6142,-0.3253 0.6142,-0.9759z"/>
 </g>
</svg>
